# xmcd
#
# Track frame offsets: 
#        182
#        14107
#        32892
#        48072
#        63942
#        82382
#        100157
#        113882
#        132092
#        145517
#        160567
#        177467
#        193682
#        209057
#        228897
#        248535
#        265812
#        280082
#
# Disc length: 4024 seconds
#
# Revision: 6
# Processed by: cddbd v1.5.2PL0 Copyright (c) Steve Scherf et al.
# Submitted via: ExactAudioCopy v0.99pb5
#
DISCID=fa0fb612
DTITLE=Various Artist - Die deutschen Single-Hits der 70er Jahre - CD 5
DYEAR=1996
DGENRE=Schlager
TTITLE0=Dschinghis Khan - Dschinghis Khan
TTITLE1=Karel Gott - Das Mädchen aus Athen
TTITLE2=Siw Inger - Hey, nur nicht drängeln, junger Mann
TTITLE3=Truck Stop - Ich möcht' so gern Dave Dudley hör'n
TTITLE4=Bino - Mama Leone
TTITLE5=Andrea Jürgens - ...und dabei liebe ich euch beide
TTITLE6=Gunter Gabriel - Ohne Moos nichts los
TTITLE7=Marianne Rosenberg - Schade, ich kann dich nicht lieben
TTITLE8=Truck Stop - Take It Easy, altes Haus
TTITLE9=Bata Illic - Mit meiner Balalaika war ich der König auf Jamaik
TTITLE9=a
TTITLE10=Milva - Zusammenleben
TTITLE11=Manuel and Pony - Das Lied von Manuel
TTITLE12=Gebrüder Blattschuss - Kreuzberger Nächte
TTITLE13=Marianne Rosenberg - Herz aus Glas
TTITLE14=Roy Black - Lucky
TTITLE15=Karel Gott - Babicka
TTITLE16=Dieter Hallervorden and Helga Feddersen - Du, die Wanne ist vol
TTITLE16=l
TTITLE17=Jonny Hill - Ruf' Teddybär eins-vier
EXTD=
EXTT0=
EXTT1=
EXTT2=
EXTT3=
EXTT4=
EXTT5=
EXTT6=
EXTT7=
EXTT8=
EXTT9=
EXTT10=
EXTT11=
EXTT12=
EXTT13=
EXTT14=
EXTT15=
EXTT16=
EXTT17=
PLAYORDER=
